<svg xmlns="http://www.w3.org/2000/svg" data-name="Layer 1" viewBox="0 0 700 550" id="male-employee-performance-board"><path fill="#020202" d="M338.42753,127.567s-1.22642,2.10787-5.69115,4.666c.4311,3.44919.661,6.89845.82384,10.34764.09591,1.71506.13427,3.43966.18222,5.16426.02854.85273.03813,1.70541.04772,2.54856.71859-.71859,1.45636-1.42759,2.18453-2.13658,1.38922-1.28384,2.788-2.55815,4.26357-3.7558a45.56817,45.56817,0,0,1,4.61818-3.37258,18.04334,18.04334,0,0,1,2.5581-1.34133,7.09978,7.09978,0,0,1,1.41822-.412,1.84943,1.84943,0,0,1,1.17847.15333C346.63864,136.32423,342.79659,132.44382,338.42753,127.567Zm60.84034,27.29671q-1.581-1.30779-3.10429-2.52944a83.842,83.842,0,0,1,1.993,9.60993,99.14825,99.14825,0,0,1,1.04419,11.19078c.03837,1.87793.05755,3.7558,0,5.64331-.01918.93894-.08608,1.87787-.1628,2.81687-.06714.93893-.11509,1.87787-.25871,2.81686a41.10987,41.10987,0,0,1-2.62523,10.865c4.024-1.73419,10.62559-3.96662,16.96819-3.35341,10.13694.96771,17.23649,17.13111,17.23649,17.13111C433.26179,194.204,419.781,171.57329,399.26787,154.86375Zm9.36081,32.39388a20.44229,20.44229,0,0,0-5.308,1.715,10.84415,10.84415,0,0,0-1.27437.68028l-1.29332.68988c-.82408.52695-1.64816,1.08267-2.55832,1.58085a28.22338,28.22338,0,0,1,1.89728-2.40488,20.80749,20.80749,0,0,1,2.37611-2.00243,13.35715,13.35715,0,0,1,2.76885-1.51384,13.49821,13.49821,0,0,1,3.07551-.891,12.23953,12.23953,0,0,1,6.32366.75689,11.14129,11.14129,0,0,1,4.92461,3.70791A17.27955,17.27955,0,0,0,408.62868,187.25763Zm-5.46122,37.424s-10.32851,2.91271-29.63468-18.82694c0,0-12.05294,5.56665-16.91065,9.41823-5.89232,4.67561-23.88575,5.27923-47.6183,1.81086,0,0-6.43851-15.56938,18.22338-27.21051a7.20982,7.20982,0,0,1,4.44555-.45988c5.32718,1.03478,18.72162,3.56422,23.52179,3.87077,6.04576.39286,19.69891-2.92224,23.59827-2.539,3.8996.3928,13.46158,6.43851,13.46158,6.43851s1.38922-.80479,3.65047-1.80126l.00959-.07661.00959-.05749.00959-.00959a77.10911,77.10911,0,0,0,1.11133-10.97043c.03837-.91981.05755-1.83957.07673-2.75938s.02877-1.83957.00959-2.769c.02877-1.83956-.03836-3.68872-.09591-5.52829-.08631-3.69837-.32584-7.38709-.54619-11.095l-.65145-10.041c-7.33908-5.93074-13.24122-10.54887-17.706-13.97894q.81929,1.5234,1.52349,3.07558c.48865,1.02519.92934,2.07909,1.37963,3.11387.42151,1.05391.88139,2.09828,1.27437,3.16177.39274,1.0635.82385,2.10787,1.188,3.181l1.34127,3.96662-3.06592-2.87435c-2.36652-2.22284-4.647-4.51275-6.86962-6.87932a87.17446,87.17446,0,0,1-6.31406-7.44452,92.19764,92.19764,0,0,1,7.59779,6.12237c1.39881,1.25513,2.77867,2.539,4.12953,3.83246-.24912-.85273-.46947-1.71506-.709-2.57733-.27789-1.10186-.56538-2.20371-.80491-3.3151-.25871-1.11145-.47905-2.23243-.67063-3.363-6.96552-5.3463-10.453-7.79907-10.453-7.79907l2.67318,21.05942s-5.59548,1.533-20.16838-11.77528a1.45261,1.45261,0,0,0-1.27437.02877,5.58812,5.58812,0,0,0-1.20723.63233,20.44,20.44,0,0,0-2.19412,1.67671c-1.418,1.18805-2.76885,2.48154-4.11036,3.775-1.33167,1.303-2.66335,2.60611-3.96649,3.94744-1.33168,1.31261-2.61564,2.68271-3.90919,4.0145l-1.897,1.9546.03836-2.69231c.02878-1.72465.00959-3.44925.07673-5.17384.048-1.7246.08631-3.4492.182-5.16426.16281-3.44919.39275-6.89845.8145-10.34764a47.22108,47.22108,0,0,1-9.13087,3.90913c-12.09154,3.89954-32.37477,13.26029-33.54364,31.59863-.8049,12.55129,1.16887,29.51954,6.52459,40.54746a50.62534,50.62534,0,0,1,4.69491-10.88418,39.67516,39.67516,0,0,1,7.94281-10.06021,23.34882,23.34882,0,0,1,5.49958-3.56422,15.56,15.56,0,0,1,6.47687-1.38928,12.77816,12.77816,0,0,1,2.0119.19163c-.03836-1.9833-.08608-3.94743-.24889-5.902-.15345-2.07915-.35461-4.14866-.62291-6.20863-.27789-2.05991-.56537-4.1103-.91976-6.15109-.37356-2.02161-.71858-4.0624-1.18805-6.02652a23.05227,23.05227,0,0,0-2.97984-5.87326,12.01028,12.01028,0,0,0-4.86707-4.13906,12.31373,12.31373,0,0,0-6.4481-.84315,21.14563,21.14563,0,0,0-6.58237,1.95454,17.241,17.241,0,0,1,6.381-3.03721,14.35127,14.35127,0,0,1,3.63129-.38321,11.74215,11.74215,0,0,1,3.66007.6994,13.08856,13.08856,0,0,1,5.89232,4.50316,23.46783,23.46783,0,0,1,3.363,6.45769l.01919.06707.00959.0383c.44069,2.10787.83367,4.16778,1.09238,6.27565.26807,2.09828.46947,4.20614.56514,6.314a60.84262,60.84262,0,0,1,.00959,6.34272,45.1418,45.1418,0,0,1-.69941,5.92115,17.061,17.061,0,0,1,4.26357,1.37009,20.77973,20.77973,0,0,1,5.19315,3.6696,27.99425,27.99425,0,0,0-5.59548-2.68271,15.85736,15.85736,0,0,0-5.90191-.86233,18.22358,18.22358,0,0,0-10.59682,4.896,35.13566,35.13566,0,0,0-4.2252,4.3786c-1.33191,1.56173-2.52956,3.23843-3.708,4.93431a109.66345,109.66345,0,0,0-6.03618,10.1656c2.46243,4.9918,5.62425,8.738,9.55239,10.26144,0,0,7.62656,21.17433,11.9189,21.17433,4.29257,0,70.98687,4.67561,78.39308,0C403.953,235.21131,403.16746,224.68163,403.16746,224.68163ZM376.84782,184.642a1.62493,1.62493,0,0,1,0,3.248A1.62493,1.62493,0,0,1,376.84782,184.642ZM373.14,169.42712a1.62482,1.62482,0,0,1,0,3.248A1.62482,1.62482,0,0,1,373.14,169.42712Zm-2.9223-14.62086a1.62494,1.62494,0,0,1,0,3.248A1.62494,1.62494,0,0,1,370.21774,154.80626Zm6.63008,68.96515a1.62491,1.62491,0,0,1,0-3.248A1.62491,1.62491,0,0,1,376.84782,223.77141Z"></path><path d="M403.17191,224.68163a11.12027,11.12027,0,0,1-4.50263-.19646,23.48362,23.48362,0,0,1-4.31339-1.42256,42.40717,42.40717,0,0,1-7.834-4.59406A72.88579,72.88579,0,0,1,379.529,212.663c-2.21821-2.06576-4.33538-4.237-6.38073-6.47219l.63181.1059-14.73664,8.39933a40.59347,40.59347,0,0,1-7.74189,3.72249,38.02578,38.02578,0,0,1-8.45439,1.75945,96.9429,96.9429,0,0,1-17.08327-.20751c-5.65653-.48379-11.27961-1.17893-16.89053-1.9314l-.5635-.07556-.185-.48365a16.92162,16.92162,0,0,1,.83274-13.36154,27.61753,27.61753,0,0,1,8.76666-9.96226,45.28888,45.28888,0,0,1,5.57958-3.50934c.95694-.53672,1.94172-1.01159,2.92557-1.48855a8.796,8.796,0,0,1,1.65963-.67566,7.91427,7.91427,0,0,1,1.83178-.29134,9.12155,9.12155,0,0,1,1.825.1078l1.61869.31032,3.16393.60815,6.33372,1.17048c4.21234.729,8.48667,1.52451,12.645,1.885a39.13816,39.13816,0,0,0,6.25-.363c2.11318-.25462,4.23152-.57616,6.35476-.90338,2.12465-.32579,4.25047-.6704,6.41138-.94274,1.0884-.12365,2.16207-.2635,3.309-.2885a8.60383,8.60383,0,0,1,1.80465.10909,11.78277,11.78277,0,0,1,1.68746.46675,43.57132,43.57132,0,0,1,5.98776,2.77411c1.91506,1.03806,3.77843,2.12565,5.62565,3.29l-.94244-.01854c.65169-.36219,1.2753-.67321,1.92068-.98528q.96314-.46105,1.942-.88244l.17543-.0755.17755.0014.01052.00009-.3497.07278a44.72012,44.72012,0,0,1,10.45342-3.08914,29.28693,29.28693,0,0,1,5.48718-.35634,16.21244,16.21244,0,0,1,2.79061.30514,13.18061,13.18061,0,0,1,2.68417.91695,23.83105,23.83105,0,0,1,8.22305,7.21689,48.7796,48.7796,0,0,1,5.53325,9.32294l.04515.1-.00024.108a20.50944,20.50944,0,0,1-1.97541,9.36388,13.138,13.138,0,0,1-2.95341,3.82389,14.22766,14.22766,0,0,1-4.10591,2.49713,23.42409,23.42409,0,0,1-9.361,1.42951A39.328,39.328,0,0,1,403.17191,224.68163Zm0,0a39.16574,39.16574,0,0,0,9.32572,1.15621,23.05074,23.05074,0,0,0,9.13367-1.63258,13.584,13.584,0,0,0,3.8582-2.48283,12.37336,12.37336,0,0,0,2.68908-3.67463,19.59137,19.59137,0,0,0,1.643-8.98233l.04491.20765a48.32323,48.32323,0,0,0-5.53793-8.98865,22.574,22.574,0,0,0-7.834-6.69672,11.75419,11.75419,0,0,0-2.39014-.77516,14.80738,14.80738,0,0,0-2.53447-.23228,27.75129,27.75129,0,0,0-5.1887.42113,43.07637,43.07637,0,0,0-10.00992,3.13446l-.1614.07138-.18854.00149-.01052.00009.35227-.074q-.93963.42246-1.861.88166c-.60818.30523-1.22992.62987-1.79483.95571l-.47133.272-.47134-.29049c-1.80325-1.11119-3.65867-2.19041-5.53209-3.19a41.911,41.911,0,0,0-5.72109-2.621,9.96083,9.96083,0,0,0-1.42033-.38809,6.78655,6.78655,0,0,0-1.40934-.06959c-1.00467.025-2.068.16523-3.11458.29058-2.10617.27646-4.22591.6309-6.351.96835-2.12629.339-4.26006.67482-6.41652.94621a40.71317,40.71317,0,0,1-6.61629.40786c-4.41772-.36139-8.6193-1.13352-12.88474-1.84523l-6.36248-1.1413-3.17587-.59318-1.55109-.28985a6.95758,6.95758,0,0,0-1.39039-.07515,6.15162,6.15162,0,0,0-1.34805.21038,6.85046,6.85046,0,0,0-1.32232.54034c-.95437.45564-1.91015.90879-2.83294,1.4196a43.19742,43.19742,0,0,0-5.35525,3.3211,25.60371,25.60371,0,0,0-8.1903,9.15122,16.46883,16.46883,0,0,0-1.63343,5.82015,14.49009,14.49009,0,0,0,.06129,3.01949,11.80771,11.80771,0,0,0,.68958,2.84614l-.74806-.559c5.58682.7787,11.18137,1.49919,16.78457,2.00746a101.46672,101.46672,0,0,0,16.775.43338,36.478,36.478,0,0,0,8.13182-1.55761,39.79867,39.79867,0,0,0,7.56388-3.49483l14.88494-8.104.36654-.19961.2655.30558c1.97143,2.26915,4.01538,4.47634,6.16085,6.58064a72.24106,72.24106,0,0,0,6.77956,5.9305,42.63447,42.63447,0,0,0,7.63264,4.7526,23.25792,23.25792,0,0,0,4.22076,1.55577A11.047,11.047,0,0,0,403.17191,224.68163Z"></path><path fill="#020202" d="M373.52974,205.85188a41.81525,41.81525,0,0,1,4.92531-2.0724c1.65144-.61233,3.31879-1.14232,4.96414-1.67643.82432-.26085,1.64162-.53026,2.428-.81175a9.3823,9.3823,0,0,0,2.15038-1.04028c1.4208-.91469,2.80043-1.98158,4.25351-3.06647a14.01357,14.01357,0,0,1-3.21212,4.39859,8.08323,8.08323,0,0,1-2.40348,1.60624,23.35857,23.35857,0,0,1-2.55014.97489,35.91287,35.91287,0,0,1-5.2039,1.2447A28.0646,28.0646,0,0,1,373.52974,205.85188Z"></path><path fill="#fff" d="M350.222 139.601a.07276.07276 0 00-.03837-.01918c-.048-.04789-.10549-.10538-.163-.15327A.8716.8716 0 01350.222 139.601zM296.67277 208.46074q-.15789.30183-.316.60361.10035-.38806.22971-.77607C296.61546 208.34577 296.644 208.40325 296.67277 208.46074zM396.02 195.33454c.03813-.01912.07649-.0383.12444-.05748l-.02877.08625-.02877.07661h-.01918l-.30643.709.14362-.76653c.02877-.01913.06714-.02872.10526-.0479zM395.83774 152.07566l-.07649-1.11145c.134.45994.26806.91022.39274 1.3701-.05754-.05749-.11508-.09579-.17239-.14368z"></path><path fill="#020202" d="M318.25681,239.90645l-5.4294,54.03112L307.3,347.956l-5.46145,54.02158-2.67482,27.01176-1.2201,13.511-.54736,6.75271-.21941,3.36921c-.02643.55776-.05614,1.12044-.06713,1.66988-.00117.26943-.01872.56055-.00655.81231l.01029.38632a1.06853,1.06853,0,0,1,.014.20788l-.67624-.54278c4.4645.5205,8.98724.85967,13.49057.976,2.2526.04514,4.50824.06356,6.75032-.05822a47.65236,47.65236,0,0,0,6.65441-.74534l-.50572.5004L342.88992,369.043q5.00449-21.69862,10.25928-43.34087c1.76114-7.21281,3.54311-14.42014,5.50261-21.59152.49356-1.79233.99858-3.58208,1.54431-5.36555.27368-.8918.55625-1.78182.86665-2.67029.156-.44446.31743-.88782.50269-1.33391.09146-.22339.18783-.44571.30385-.67562a2.51808,2.51808,0,0,1,.53333-.77448.70713.70713,0,0,1,.23157-.14525.66031.66031,0,0,1,.42783-.05391.68581.68581,0,0,1,.37427.17849,1.0865,1.0865,0,0,1,.15228.16174,2.72668,2.72668,0,0,1,.24163.41517c.109.24087.20093.47288.28163.70083.164.4569.30456.90755.43813,1.35908.2676.90246.50829,1.80422.74127,2.70726.46316,1.80594.89473,3.61488,1.31414,5.42579,3.30147,14.49385,6.19874,29.05283,9.14139,43.60607,2.93517,14.55365,5.77,29.12552,8.617,43.69353,2.85938,14.56442,5.69536,29.13709,8.721,43.6553.76327,3.62581,1.53565,7.25431,2.3836,10.842.21192.89519.42876,1.79049.66548,2.66219.11813.43212.24211.87294.3752,1.25331.033.09307.0662.185.09474.2488l.02573.05782c.00585.01538.00608.01092-.03555-.05154-.1172-.10845.12.06482-.306-.257-.5394-.21067-.58993-.09559-.47788-.12677l.08257-.00048.16678-.00139.34058-.005c1.83062-.0365,3.676-.1169,5.51291-.22708a109.89248,109.89248,0,0,0,10.951-1.15089,43.20164,43.20164,0,0,0,5.29186-1.16563,17.51942,17.51942,0,0,0,2.44534-.9077,5.498,5.498,0,0,0,1.83951-1.28462l-.23508.74224c-.84163-17.37187-1.90852-34.74537-3.05213-52.10621q-1.69576-26.0449-3.93749-52.04844c-1.5553-17.32706-3.21329-34.65036-5.52577-51.88964-1.17378-8.61507-2.44932-17.22072-4.14123-25.746-.85472-4.25931-1.81331-8.50164-3.05236-12.66182a51.98733,51.98733,0,0,0-2.20815-6.11126A19.37522,19.37522,0,0,0,398.754,242.212a6.3506,6.3506,0,0,0-2.25448-2.21912l.091-.19666a6.57377,6.57377,0,0,1,2.392,2.25973,19.66625,19.66625,0,0,1,1.61191,2.86265,52.41169,52.41169,0,0,1,2.33868,6.11676c1.32256,4.15949,2.36231,8.39843,3.29843,12.6543,1.85869,8.51729,3.29844,17.11593,4.56462,25.73351,2.5085,17.2405,4.47456,34.55206,6.13231,51.88763q2.4919,26.00393,4.34591,52.05993,1.85682,26.056,3.174,52.14615l.022.43047-.25731.31211a7.50553,7.50553,0,0,1-2.64347,1.937,19.68082,19.68082,0,0,1-2.76511,1.0361,45.36916,45.36916,0,0,1-5.57045,1.23982,112.07391,112.07391,0,0,1-11.18183,1.19572c-1.86735.115-3.73.19958-5.60975.24024l-.35508.00584-.18105.00181-.09147.00066c.05264-.025-.0545.08484-.64279-.163-.48444-.34021-.26456-.23377-.42175-.38246a1.2685,1.2685,0,0,1-.12608-.19945,2.63544,2.63544,0,0,1-.124-.25595c-.06479-.1487-.10994-.27507-.15485-.40047-.17333-.4956-.29894-.94912-.42689-1.41134-.25123-.91858-.47228-1.82677-.68935-2.73676-.85028-3.63775-1.60232-7.27409-2.35365-10.914-2.96815-14.55933-5.74028-29.14172-8.53673-43.72192l-8.33322-43.74441c-2.80347-14.5728-5.56437-29.16256-8.72058-43.64756-.40093-1.80825-.81356-3.61345-1.25566-5.40651-.222-.89576-.45169-1.78933-.70338-2.66827-.12538-.43929-.25754-.876-.403-1.29371-.07181-.21014-.1504-.40977-.2304-.59262-.03977-.081-.083-.16263-.10129-.18928-.01076-.01849.01918.02968.03462.03466a.66389.66389,0,0,0,.226.10078.6068.6068,0,0,0,.265-.02611c.06877-.03157.10058-.0678.08865-.05082a2.40036,2.40036,0,0,0-.22853.38078c-.095.183-.1862.38573-.272.59078-.1745.40911-.335.83644-.49006,1.26586-.30993.86042-.59741,1.73653-.87647,2.616-.55649,1.76017-1.07835,3.537-1.58759,5.31768-2.025,7.12851-3.87877,14.31531-5.7108,21.50492-3.66685,14.38089-7.06376,28.83131-10.48243,43.27529q-10.13529,43.36119-19.43458,86.914l-.08866.41325-.41707.08736a48.76731,48.76731,0,0,1-6.84833.85406c-2.28745.15151-4.57233.16028-6.85464.142-4.56766-.06384-9.10631-.34839-13.65946-.82364l-.56654-.05915-.10971-.48384a4.66811,4.66811,0,0,1-.10737-.63119l-.01941-.46162c-.01661-.31344-.00187-.58821-.004-.8843.00468-.58167.0283-1.14939.04842-1.7218l.18058-3.40662q.21053-3.39832.48257-6.78351l1.16981-13.53442,2.5726-27.03583q2.76242-27.01444,5.71009-54.00593c1.91717-17.99983,4.00042-35.98149,6.043-53.9671,2.02594-17.98754,4.24275-35.95389,6.38658-53.92794Z"></path><path fill="#020202" d="M317.14524 248.98488c3.57773.32391 7.13932.71117 10.71518.97974 3.56744.32746 7.13674.61866 10.704.90162 3.56837.27184 7.1344.55754 10.70418.76594l5.35221.33763 5.35478.26189c1.7843.09908 3.56977.142 5.355.21584l2.67786.0971 2.67809.04137c1.785.0273 3.57188.10763 5.35665.09154 1.78478-.01785 3.57048-.01677 5.35759-.008 7.14-.13482 14.27864-.42072 21.42193-1.211a127.55718 127.55718 0 01-21.36555 2.901c-7.19125.40957-14.39443.31563-21.581.03541q-10.77669-.52467-21.48181-1.85293C331.26341 251.66736 324.16363 250.51888 317.14524 248.98488zM358.06211 288.9223a14.11334 14.11334 0 005.25537 3.81374 25.14914 25.14914 0 006.17372 1.76377 50.52736 50.52736 0 006.52693.6202l6.74587.1587a26.94914 26.94914 0 01-6.6902 1.53126 26.18944 26.18944 0 01-6.94166-.17462 23.107 23.107 0 01-3.4154-.876 16.48413 16.48413 0 01-3.19831-1.54046A9.958 9.958 0 01358.06211 288.9223z"></path><path fill="#020202" d="M361.69364 241.807c.84654 6.53823 1.42875 13.09773 1.88091 19.6664.45918 6.5694.75134 13.14822.84093 19.749-.00515 3.30737.01216 6.59586-.30035 9.966-.054.427-.09123.84416-.17941 1.28971a6.01183 6.01183 0 01-.13918.67661l-.10059.36055-.05169.1795a.01425.01425 0 00.00491-.01872.91708.91708 0 00.19672.44242 5.285 5.285 0 00.66713.79183 27.305 27.305 0 003.74638 2.89769c5.44765 3.53878 11.30441 6.58145 17.1048 9.69155-3.10429-1.11481-6.14378-2.39334-9.15871-3.73742a91.77859 91.77859 0 01-8.84736-4.52353 24.47908 24.47908 0 01-4.16743-2.96618 7.13045 7.13045 0 01-.94759-1.06644 2.57553 2.57553 0 01-.54315-1.8482l.15859-.67323a4.51275 4.51275 0 00.09053-.53385c.06245-.36346.08655-.76723.1235-1.15717.23626-3.18628.20912-6.48527.17755-9.75213-.04585-6.55317-.24491-13.1216-.35836-19.69346C361.75844 254.97551 361.64522 248.39873 361.69364 241.807zM338.323 127.55286a67.44058 67.44058 0 00.01122-8.44257 5.44677 5.44677 0 00-.17309-.93935c-.03649-.11257-.10877-.26724-.10456-.22967-.00655-.01526.03158.05155.062.05637.05544.02237-.06292-.03365-.08584-.04681l-.26947-.14129a16.75644 16.75644 0 01-4.95409-4.46289 9.84285 9.84285 0 01-1.796-4.265 8.04282 8.04282 0 01.74409-4.66646 11.44773 11.44773 0 011.12677-1.996 7.21961 7.21961 0 01.79952-.94692 3.19166 3.19166 0 011.26337-.81361 2.102 2.102 0 011.858.30874 3.41815 3.41815 0 01.938 1.12568 8.303 8.303 0 01.78876 2.28488l-1.77027.30559A47.85341 47.85341 0 01338.206 87.05338a14.60986 14.60986 0 014.71923-7.48507c.30362-.22862.63438-.42125.952-.63294l1.01893-.52658c.69941-.2602 1.3946-.5435 2.10523-.78431.72959-.17213 1.44958-.41219 2.1953-.52666a17.38149 17.38149 0 012.25447-.25272 17.62909 17.62909 0 0115.63043 8.11247 16.42655 16.42655 0 011.94757 4.22967 26.75061 26.75061 0 01.65052 13.59853l-.88864-1.38355a6.7 6.7 0 012.26757.99175 5.66005 5.66005 0 011.73 1.80164 6.50942 6.50942 0 01.57543 4.70417 20.73039 20.73039 0 01-1.47577 4.03 14.90179 14.90179 0 01-1.05028 1.90784 4.80248 4.80248 0 01-.815.94916 1.95753 1.95753 0 01-.77987.42748 1.23671 1.23671 0 01-1.32186-.488l1.44185-.26859c-.30151 1.17548-.55624 2.41069-.77355 3.63217q-.32492 1.84011-.52748 3.7017c-.14269 1.23969-.24655 2.4843-.29941 3.73375-.05146 1.24993-.0276 2.50052.02737 3.75726a.10843.10843 0 01-.10035.116.1117.1117 0 01-.11462-.08874 30.65713 30.65713 0 01-.46362-3.776c-.07064-1.26747-.12047-2.54233-.07275-3.81343q.06351-1.907.251-3.80957c.12912-1.272.28748-2.52221.51532-3.80825l1.44208-.26862a.38772.38772 0 00-.4028-.20365c-.03883-.00456.01474-.012.08538-.09427a3.39338 3.39338 0 00.46619-.62993 13.28092 13.28092 0 00.81987-1.71407 21.63563 21.63563 0 001.17005-3.67256 4.468 4.468 0 00-.45052-3.19241 3.46768 3.46768 0 00-1.101-1.08747 4.6426 4.6426 0 00-1.45682-.61745 1.14635 1.14635 0 01-.8973-1.33857l.00865-.04521a27.40293 27.40293 0 00.24936-8.30717 26.63584 26.63584 0 00-.818-4.11266 14.21384 14.21384 0 00-1.60653-3.75088A16.782 16.782 0 00362.74252 82.86a17.63743 17.63743 0 00-3.31434-2.47874 16.17923 16.17923 0 00-7.954-2.25853 14.621 14.621 0 00-2.11061.09725c-.70409.064-1.3918.252-2.09307.37093-.68444.18812-1.36045.4183-2.04536.62531l-.95507.4254c-.29543.18521-.60561.34988-.89192.55073a12.676 12.676 0 00-4.51035 7.05984 30.43866 30.43866 0 00-1.02922 8.57193 55.709 55.709 0 00.701 8.60076.89742.89742 0 01-1.75647.36123l-.01356-.05565a6.5884 6.5884 0 00-.66034-1.70559 1.64115 1.64115 0 00-.41941-.49458c-.12-.06781-.06363-.03971-.16094-.03313a3.01749 3.01749 0 00-1.05589 1.04475 11.56226 11.56226 0 00-.98057 1.698 6.96592 6.96592 0 00.70712 7.15917 15.58342 15.58342 0 002.65353 3.02873 15.01873 15.01873 0 001.599 1.24645l.19321.12257.14152.09064a1.06283 1.06283 0 01.25848.233 1.8378 1.8378 0 01.31835.73926 6.52207 6.52207 0 01.124 1.16712 29.19968 29.19968 0 01-.28935 4.32345c-.17334 1.419-.38386 2.82826-.66011 4.22892a.10875.10875 0 01-.12772.08555A.11019.11019 0 01338.323 127.55286z"></path><path fill="#020202" d="M342.91589 97.92376a4.77785 4.77785 0 011.68442-2.0183 6.82883 6.82883 0 012.45306-1.089 7.77362 7.77362 0 012.66219-.06559 9.24205 9.24205 0 011.28045.29979 10.01288 10.01288 0 011.1946.53292c-.4442.0267-.865-.00219-1.284-.00851-.42081.019-.83227-.00707-1.24.01983a14.876 14.876 0 00-2.385.27993A10.791 10.791 0 00342.91589 97.92376zM361.44242 95.14634a3.4228 3.4228 0 011.59974-1.22068 7.92539 7.92539 0 011.9146-.5383 8.63834 8.63834 0 013.90661.27225 11.78641 11.78641 0 01-1.8905.48634c-.62268.1271-1.24162.21122-1.85448.31207-.61613.08132-1.222.18377-1.83319.274A11.02261 11.02261 0 00361.44242 95.14634zM347.79127 103.25418a1.6261 1.6261 0 000-3.25025 1.6261 1.6261 0 000 3.25025zM364.95257 101.88907a1.62609 1.62609 0 000-3.25024 1.62609 1.62609 0 000 3.25024zM338.43057 117.42525c1.2063 1.34089 2.46359 2.60956 3.74006 3.84065a37.87814 37.87814 0 004.05024 3.39305 18.095 18.095 0 004.57842 2.45716 10.22641 10.22641 0 005.18262.44991 8.3191 8.3191 0 01-5.41888.36187 14.84069 14.84069 0 01-4.97092-2.38749 25.60326 25.60326 0 01-7.16154-8.11515zM347.79138 113.32993c1.35811.41862 2.72089.73274 4.0755 1.01223a28.3066 28.3066 0 004.08509.5057 18.73276 18.73276 0 004.06707-.25944 18.232 18.232 0 003.95855-1.25849 10.20617 10.20617 0 01-3.75738 2.07968 13.34442 13.34442 0 01-4.31409.52A16.34359 16.34359 0 01347.79138 113.32993zM361.44242 103.87731a6.73571 6.73571 0 011.34454 3.81726 3.119 3.119 0 01-.77169 2.10979 3.69449 3.69449 0 01-1.98242 1.06121 9.658 9.658 0 01-4.10451-.2285 17.57151 17.57151 0 01-3.73773-1.40244c1.31765.19175 2.61.40725 3.88837.57052a12.205 12.205 0 003.72556.002 2.39838 2.39838 0 002.1422-2.17088A9.63387 9.63387 0 00361.44242 103.87731zM298.372 456.39793s-7.23173 20.82811-1.22087 23.63318 48.688 7.61375 48.28724 3.80688-20.83765-11.41262-23.04163-14.02534S320.1022 456.807 320.1022 456.807M399.08621 450.78623s-4.22528 21.63921 2.12082 23.56948 49.275.67852 48.342-3.03394-22.23766-8.36313-24.78774-10.63928-4.104-12.55264-4.104-12.55264M362.38 126.786a36.92493 36.92493 0 003.63995-5.46332 28.23412 28.23412 0 001.39577-2.93329c.43648-1.00268.76256-2.045 1.16864-3.10928a11.23807 11.23807 0 01-.36608 3.37513 13.57721 13.57721 0 01-1.24606 3.18288 14.05851 14.05851 0 01-1.97074 2.78975A10.3147 10.3147 0 01362.38 126.786zM360.66184 88.16068h-9.55495a.54175.54175 0 110-1.08349h9.55495a.54175.54175 0 110 1.08349zM360.66184 90.95737h-9.55495a.54175.54175 0 010-1.0835h9.55495a.54175.54175 0 110 1.0835z"></path><path d="M563.11523 93.58265H461.41135c0 .39286.00935.77607.02854 1.16893a21.22678 21.22678 0 00.61332 4.187 11.0804 11.0804 0 003.018 5.45168 8.7503 8.7503 0 005.62425 2.22284c2.08863.02871 4.31152-.05748 6.46728-.08626 8.67076-.15327 17.34175-.17245 26.02234-.19163 8.671.01918 17.342.03836 26.02233.19163l6.50565.115 1.61915.02877a6.80518 6.80518 0 001.5139-.14374 9.23667 9.23667 0 002.91271-1.0539 9.95818 9.95818 0 004.26357-4.50316 19.31478 19.31478 0 001.6767-6.199 17.9032 17.9032 0 01-1.26478 6.39062 11.52358 11.52358 0 01-2.80721 3.97614c-.00959.00959-.00959.00959-.01918.00959a8.99424 8.99424 0 01-1.42758 1.054 10.60291 10.60291 0 01-3.13306 1.26472 9.22977 9.22977 0 01-1.71507.22034l-1.61915.02872-6.50565.115c-8.68035.15327-17.35134.17245-26.02233.19157-8.68059-.01912-17.35158-.0383-26.02234-.19157-2.18453-.05755-4.30193-.03837-6.544-.15334a9.57957 9.57957 0 01-6.12249-2.70189 11.56486 11.56486 0 01-2.87435-5.94033 19.66566 19.66566 0 01-.28725-5.45168H446.01436a5.08058 5.08058 0 00-5.07805 5.07806V269.56938a5.08873 5.08873 0 005.07805 5.08759H563.11523a5.08273 5.08273 0 005.078-5.08759V98.66071A5.07459 5.07459 0 00563.11523 93.58265zM453.91882 117.15233H486.5427V152.9188H453.91882zm7.01347 139.08c-8.18234 0-8.173-12.70463 0-12.70463C469.124 243.52774 469.10481 256.23237 460.93229 256.23237zm0-20.38867c-8.18234 0-8.173-12.695 0-12.695C469.124 223.14867 469.10481 235.8437 460.93229 235.8437zm0-20.37914c-8.18234 0-8.173-12.70462 0-12.70462C469.124 202.75994 469.10481 215.46456 460.93229 215.46456zm0-20.38867c-8.18234 0-8.173-12.70462 0-12.70462C469.124 182.37127 469.10481 195.07589 460.93229 195.07589zm0-20.38873c-8.18234 0-8.173-12.70462 0-12.70462C469.124 161.98254 469.10481 174.68716 460.93229 174.68716zm88.60651 76.63007H475.9363v-2.87435h73.6025zm0-20.37908H475.9363V228.0638h73.6025zm0-20.38873H475.9363v-2.87435h73.6025zm0-20.38867H475.9363v-2.87434h73.6025zm0-20.38873H475.9363v-2.87434h73.6025zm0-20.38867H501.50835V146.509H549.5388zm0-20.37913H501.50835v-2.87435H549.5388zM523.16185 83.35a91.87027 91.87027 0 00-9.14046-.98682c-.048 0-.08631-.00959-.13427-.00959-3.10428-.21082-6.21816-.27784-9.32244-.28743-3.04674.02872-6.10308.09579-9.15005.297-.05731 0-.10526.00959-.16281.00959-3.10428.19157-6.199.47905-9.28408.97723 0-.33531.00959-.6611.02877-.98682a18.59435 18.59435 0 0137.13657 0C523.15226 82.68888 523.16185 83.01467 523.16185 83.35z"></path><path d="M523.16185,83.35a18.59706,18.59706,0,0,1-37.19411,0c3.11387.20123,6.21816.28749,9.31285.33538,3.10429.06708,6.18939.06708,9.28409.07661,3.09469-.02872,6.18962-.02872,9.28432-.09579C516.95305,83.60869,520.048,83.55121,523.16185,83.35Z"></path><path d="M547.69906,92.51916v2.2516a19.31478,19.31478,0,0,1-1.6767,6.199,9.95818,9.95818,0,0,1-4.26357,4.50316,9.23667,9.23667,0,0,1-2.91271,1.0539,6.80518,6.80518,0,0,1-1.5139.14374l-1.61915-.02877-6.50565-.115c-8.68035-.15327-17.35134-.17245-26.02233-.19163-8.68059.01918-17.35158.03836-26.02234.19163-2.15576.02878-4.37865.115-6.46728.08626a8.7503,8.7503,0,0,1-5.62425-2.22284,11.0804,11.0804,0,0,1-3.018-5.45168,21.22678,21.22678,0,0,1-.61332-4.187V92.51916a10.18588,10.18588,0,0,1,10.15611-10.156h23.81863c-.05731,0-.10526.00959-.16281.00959-3.10428.19157-6.199.47905-9.28408.97723,3.11387.20123,6.21816.28749,9.31285.33538,3.10429.06708,6.18939.06708,9.28409.07661,3.09469-.02872,6.18962-.02872,9.28432-.09579,3.104-.05749,6.199-.115,9.31285-.3162a91.87027,91.87027,0,0,0-9.14046-.98682h23.5122A10.18786,10.18786,0,0,1,547.69906,92.51916Z"></path><path d="M546.43428,101.16138a17.9032,17.9032,0,0,0,1.26478-6.39062v2.242a10.15222,10.15222,0,0,1-4.072,8.1248A11.52358,11.52358,0,0,0,546.43428,101.16138Z"></path><path fill="#fff" d="M461.43989,92.51916c-.01919.3545-.02854.71858-.02854,1.06349h-.07673C461.3538,93.22815,461.39217,92.87366,461.43989,92.51916Z"></path><path d="M454.73822 209.97382a17.86424 17.86424 0 012.2533.91308c.72865.338 1.43273.7128 2.123 1.10861l-.92537.07848c.571-.63411 1.1801-1.228 1.78758-1.82351.62736-.57444 1.23951-1.16513 1.905-1.69936a25.05588 25.05588 0 014.23714-2.94666 25.05755 25.05755 0 01-3.18055 4.06456c-.57075.63432-1.19507 1.21215-1.80395 1.80627-.62876.573-1.25589 1.14767-1.92114 1.68214l-.50268.4037-.42292-.32522c-.63087-.48482-1.2477-.99061-1.84-1.53329A17.87131 17.87131 0 01454.73822 209.97382zM454.73822 189.58737a17.86266 17.86266 0 012.2533.91306c.72865.338 1.43273.71282 2.123 1.10864l-.92537.07847c.571-.63411 1.1801-1.228 1.78758-1.82351.62736-.57444 1.23951-1.16516 1.905-1.69939a25.057 25.057 0 014.23714-2.94666 25.0583 25.0583 0 01-3.18055 4.0646c-.57075.63432-1.19507 1.21214-1.80395 1.80626-.62876.573-1.25589 1.14767-1.92114 1.68211l-.50268.40371-.42292-.3252c-.63087-.48485-1.2477-.9906-1.84-1.53329A17.87245 17.87245 0 01454.73822 189.58737zM454.73822 250.74674a17.86577 17.86577 0 012.2533.91309c.72865.338 1.43273.71281 2.123 1.10861l-.92537.07848c.571-.6341 1.1801-1.228 1.78758-1.82352.62736-.57442 1.23951-1.16513 1.905-1.69936a25.05766 25.05766 0 014.23714-2.94667 25.05822 25.05822 0 01-3.18055 4.06459c-.57075.63431-1.19507 1.21214-1.80395 1.80625-.62876.573-1.25589 1.14769-1.92114 1.68213l-.50268.4037-.42292-.3252c-.63087-.48483-1.2477-.99061-1.84-1.53328A17.8704 17.8704 0 01454.73822 250.74674zM454.73822 230.36029a17.86565 17.86565 0 012.2533.91306c.72865.338 1.43273.71283 2.123 1.10861l-.92537.07848c.571-.63409 1.1801-1.228 1.78758-1.82348.62736-.57444 1.23951-1.16516 1.905-1.6994a25.05641 25.05641 0 014.23714-2.94665 25.05779 25.05779 0 01-3.18055 4.06459c-.57075.63432-1.19507 1.21215-1.80395 1.80626-.62876.573-1.25589 1.14768-1.92114 1.68211l-.50268.40371-.42292-.3252c-.63087-.48485-1.2477-.9906-1.84-1.53328A17.8737 17.8737 0 01454.73822 230.36029zM454.73822 169.0849a17.86278 17.86278 0 012.2533.91309c.72865.33794 1.43273.71279 2.123 1.10861l-.92537.07847c.571-.63411 1.1801-1.228 1.78758-1.82351.62736-.57443 1.23951-1.16513 1.905-1.69936a25.05718 25.05718 0 014.23714-2.94669 25.05787 25.05787 0 01-3.18055 4.0646c-.57075.63432-1.19507 1.21214-1.80395 1.80626-.62876.573-1.25589 1.14767-1.92114 1.68211l-.50268.40371-.42292-.3252c-.63087-.48482-1.2477-.9906-1.84-1.53328A17.87029 17.87029 0 01454.73822 169.0849zM145.49659 211.18883c.876 9.12192 1.33425 18.24387 1.64559 27.36579q.46455 13.68291.47064 27.36582.01683 13.6829-.46433 27.36581c-.31017 9.12193-.77075 18.24387-1.6519 27.36581-.88139-9.12194-1.342-18.24388-1.65214-27.36581q-.46035-13.68291-.46433-27.36581-.00491-13.68291.47064-27.36582C144.1621 229.4327 144.62058 220.31075 145.49659 211.18883z"></path><path d="M299.7546 306.46962c-13.99583.876-27.99143 1.3343-41.987 1.64562-6.9978.195-13.9956.2384-20.9934.35314l-20.99363.11691-20.9934-.11118c-6.9978-.118-13.9956-.15563-20.99339-.35254-13.99584-.31014-27.99144-.77067-41.987-1.65195 13.99559-.88129 27.99119-1.34182 41.987-1.652 6.99779-.19692 13.99559-.2345 20.99339-.35254l20.9934-.11119 20.99363.11692c6.9978.11473 13.9956.15809 20.9934.35314C271.76317 305.13531 285.75877 305.59361 299.7546 306.46962zM145.32419 303.061c1.92933-3.24778 3.94334-6.43525 5.96647-9.61605 2.04091-3.16812 4.08111-6.33663 6.1798-9.46341 2.07412-3.14445 4.19246-6.2572 6.32015-9.36338 2.10523-3.12214 4.29046-6.18715 6.44014-9.27749l1.3263-1.9065 1.60185 1.75473c1.77261 1.942 3.50124 3.923 5.232 5.90213 1.749 1.96291 3.41469 3.99962 5.12343 5.9981 1.6739 2.02938 3.35645 4.05119 5.007 6.101l4.97514 6.12933-1.77892.11385 4.19573-5.67491c1.36162-1.91667 2.74944-3.81564 4.08977-5.74685q4.03222-5.7858 7.90141-11.68245c2.59178-3.92262 5.072-7.92087 7.58984-11.89365l7.49159-11.96045 1.16677-1.86287 1.45846 1.79211q3.19645 3.92783 6.32834 7.90473l6.24927 7.96482 6.24085 7.97116c2.08675 2.65212 4.16158 5.31334 6.1957 8.00544l-3.6348.05632c3.25259-4.63525 6.60342-9.20041 9.94559-13.77185q5.028-6.84647 10.15612-13.62181 5.12169-6.77993 10.354-13.48091 2.61435-3.35166 5.28063-6.66663c1.77425-2.21211 3.538-4.43184 5.356-6.6129l.3448.24567c-1.46759 2.4307-2.98944 4.82269-4.50053 7.22233q-2.25365 3.60877-4.57608 7.16859-4.62134 7.13626-9.3594 14.18951-4.72766 7.06059-9.55706 14.04864c-3.229 4.652-6.449 9.31036-9.76759 13.89858l-1.78781 2.47171-1.84723-2.41538c-2.05-2.68016-4.05936-5.39121-6.05652-8.11135l-6.01138-8.14563-6.0032-8.152q-2.99259-4.08275-5.92389-8.21206l2.625-.07075-8.34468 11.38157c-2.76113 3.8079-5.55946 7.59034-8.24644 11.44838q-4.04871 5.77462-7.93509 11.6596c-1.29917 1.95912-2.55061 3.9505-3.82826 5.92415l-3.72252 5.99611-.74081 1.19336-1.03835-1.0795-5.4729-5.68923c-1.832-1.88968-3.63224-3.80737-5.44087-5.71752-1.77377-1.94106-3.59082-3.84385-5.32437-5.82046-1.752-1.96043-3.50615-3.91888-5.21583-5.91644l2.92768-.15175c-2.22664 3.03536-4.41772 6.09608-6.689 9.09967-2.24885 3.01953-4.50683 6.0325-6.80926 9.01378-2.27763 2.99893-4.61374 5.95615-6.94938 8.91375-2.35318 2.94493-4.716 5.88317-7.16294 8.76112z"></path></svg>